<svg xmlns="http://www.w3.org/2000/svg" width="48" height="48" viewBox="0 0 48 48" fill="none">
  <defs><filter id="g" x="-50%" y="-50%" width="200%" height="200%"><feGaussianBlur stdDeviation="2.5" result="b"/><feMerge><feMergeNode in="b"/><feMergeNode in="SourceGraphic"/></feMerge></filter></defs>
  <g filter="url(#g)" stroke="#FF3348" stroke-width="2.2" stroke-linecap="round" stroke-linejoin="round">
    <path d="M27 11c5.5 1 10 5.5 11 11-2.2 3.3-5.3 6.4-8.6 8.6-5.5 1.1-10.5 0-13.8-3.2C12.4 24 11.3 19 12.4 13.5 14.6 10.2 17.7 7.1 21 4.9 23.2 7 25.1 8.9 27 11Z"/>
    <circle cx="28.5" cy="19.5" r="2.2"/>
    <path d="M18 30c-1.6 1.1-4.8 3.8-6 8 4.2-1.2 6.9-4.4 8-6"/>
    <path d="M16 16c-3.3.2-6.1 1.2-8 3.1M32 32c1.9-1.9 2.9-4.7 3.1-8"/>
  </g>
</svg>
